<?xml version="1.0" encoding="UTF-8"?>
<svg id="artwork" xmlns="http://www.w3.org/2000/svg" version="1.1" viewBox="0 0 238.96 70.87">
  <!-- Generator: Adobe Illustrator 29.8.3, SVG Export Plug-In . SVG Version: 2.1.1 Build 3)  -->
  <defs>
    <style>
      .st0 {
        fill: #4285f4;
      }

      .st1 {
        fill: #a6a6a6;
      }

      .st2 {
        stroke: #fff;
        stroke-miterlimit: 10;
        stroke-width: .2px;
      }

      .st2, .st3 {
        fill: #fff;
      }

      .st4 {
        fill: #34a853;
      }

      .st5 {
        fill: #fbbc04;
      }

      .st6 {
        fill: #ea4335;
      }
    </style>
  </defs>
  <g>
    <rect x="-.11" y="0" width="239.17" height="70.87" rx="8.86" ry="8.86"/>
    <path class="st1" d="M230.21,1.42c4.11,0,7.44,3.33,7.44,7.44v53.15c0,4.11-3.33,7.44-7.44,7.44H8.75c-4.11,0-7.44-3.33-7.44-7.44V8.86C1.31,4.75,4.64,1.42,8.75,1.42h221.46M230.21,0H8.75C3.88,0-.11,3.99-.11,8.86v53.15c0,4.87,3.99,8.86,8.86,8.86h221.46c4.87,0,8.86-3.99,8.86-8.86V8.86C239.07,3.99,235.08,0,230.21,0h0Z"/>
    <path class="st3" d="M120.61,38.53c-4.16,0-7.56,3.17-7.56,7.53s3.4,7.53,7.56,7.53,7.56-3.19,7.56-7.53-3.4-7.53-7.56-7.53ZM120.61,50.63c-2.29,0-4.25-1.88-4.25-4.57s1.97-4.57,4.25-4.57,4.25,1.86,4.25,4.57-1.97,4.57-4.25,4.57ZM104.1,38.53c-4.16,0-7.56,3.17-7.56,7.53s3.4,7.53,7.56,7.53,7.56-3.19,7.56-7.53-3.4-7.53-7.56-7.53ZM104.1,50.63c-2.29,0-4.25-1.88-4.25-4.57s1.97-4.57,4.25-4.57,4.25,1.86,4.25,4.57-1.97,4.57-4.25,4.57ZM84.47,40.85v3.19h7.65c-.23,1.81-.83,3.12-1.74,4.02-1.12,1.12-2.85,2.34-5.9,2.34-4.71,0-8.4-3.79-8.4-8.5s3.69-8.5,8.4-8.5c2.53,0,4.39.99,5.76,2.29l2.25-2.25c-1.91-1.82-4.45-3.22-8.03-3.22-6.45,0-11.87,5.24-11.87,11.71s5.42,11.71,11.87,11.71c3.49,0,6.11-1.13,8.17-3.28,2.11-2.11,2.76-5.08,2.76-7.48,0-.74-.05-1.44-.18-2h-10.75v-.02ZM164.75,43.33c-.62-1.68-2.53-4.8-6.45-4.8s-7.1,3.05-7.1,7.53c0,4.22,3.19,7.53,7.48,7.53,3.45,0,5.46-2.11,6.27-3.33l-2.57-1.72c-.85,1.26-2.02,2.09-3.7,2.09s-2.89-.78-3.65-2.29l10.08-4.16-.34-.85h-.02ZM154.47,45.85c-.09-2.91,2.25-4.39,3.93-4.39,1.31,0,2.43.66,2.8,1.59,0,0-6.73,2.8-6.73,2.8ZM146.29,53.15h3.31v-22.15h-3.31v22.15ZM140.86,40.22h-.11c-.74-.89-2.16-1.68-3.97-1.68-3.77,0-7.23,3.31-7.23,7.56s3.45,7.51,7.23,7.51c1.81,0,3.22-.8,3.97-1.72h.11v1.08c0,2.89-1.54,4.43-4.02,4.43-2.02,0-3.28-1.45-3.79-2.68l-2.89,1.2c.83,2,3.03,4.45,6.68,4.45,3.88,0,7.16-2.29,7.16-7.85v-13.54h-3.14s0,1.22,0,1.22ZM137.06,50.63c-2.29,0-4.2-1.91-4.2-4.54s1.91-4.59,4.2-4.59,4.02,1.95,4.02,4.59-1.77,4.54-4.02,4.54ZM180.27,31h-7.92v22.15h3.31v-8.4h4.62c3.67,0,7.26-2.66,7.26-6.87s-3.6-6.87-7.26-6.87h-.02ZM180.34,41.67h-4.69v-7.6h4.69c2.48,0,3.88,2.06,3.88,3.79s-1.4,3.79-3.88,3.79v.02ZM200.78,38.5c-2.39,0-4.87,1.06-5.9,3.38l2.94,1.22c.62-1.22,1.79-1.63,3.01-1.63,1.7,0,3.45,1.03,3.47,2.85v.23c-.6-.34-1.88-.85-3.45-.85-3.17,0-6.38,1.74-6.38,4.98,0,2.96,2.59,4.87,5.49,4.87,2.21,0,3.45-.99,4.22-2.16h.11v1.72h3.19v-8.49c0-3.93-2.94-6.13-6.73-6.13h.04ZM200.37,50.63c-1.08,0-2.59-.55-2.59-1.88,0-1.7,1.88-2.36,3.51-2.36,1.45,0,2.14.32,3.01.74-.25,2.06-2.02,3.51-3.93,3.51v-.02ZM219.12,38.98l-3.79,9.6h-.11l-3.93-9.6h-3.56l5.9,13.43-3.37,7.46h3.45l9.09-20.89h-3.69ZM189.35,53.15h3.31v-22.15h-3.31v22.15Z"/>
    <g>
      <path class="st6" d="M36.6,34.41l-18.87,20.02h0c.58,2.18,2.57,3.77,4.93,3.77.94,0,1.82-.25,2.59-.71l.05-.04,21.22-12.24-9.94-10.82.02.02Z"/>
      <path class="st5" d="M55.68,31h-.02l-9.16-5.33-10.33,9.19,10.36,10.36,9.12-5.26c1.59-.87,2.68-2.55,2.68-4.48s-1.06-3.61-2.66-4.46v-.02Z"/>
      <path class="st0" d="M17.73,16.44c-.11.43-.18.85-.18,1.31v35.38c0,.46.05.89.18,1.31l19.51-19.51s-19.51-18.5-19.51-18.5Z"/>
      <path class="st4" d="M36.74,35.43l9.76-9.76-21.21-12.3c-.76-.46-1.67-.73-2.64-.73-2.36,0-4.34,1.61-4.93,3.77h0l19.01,18.99v.02Z"/>
    </g>
  </g>
  <g>
    <path class="st2" d="M124.67,25.71c-1.12,0-1.98-.32-2.6-.96s-.94-1.54-.94-2.71c0-.37.02-.73.07-1.06s.16-.81.3-1.45l.71.18c-.14.57-.21,1.03-.21,1.38,0,.96.23,1.7.71,2.21.48.53,1.13.8,1.98.8.96,0,1.93-.23,2.89-.71s1.59-1.05,1.91-1.74c-.85-1.86-1.28-3.1-1.28-3.72,0-.34.09-.64.28-.92s.51-.55.99-.83c.05.46.21,1.29.44,2.52v.07c.44.21.92.32,1.44.32.11,0,.16.05.16.16v1.17c0,.11-.05.16-.16.16-.44,0-.83-.09-1.19-.23l.04.57c0,.8-.25,1.56-.76,2.29-.51.73-1.2,1.33-2.09,1.79s-1.79.69-2.73.69l.04.04ZM126.21,15.06c-.3.44-.73.92-1.26,1.44-.58-.46-1.05-.89-1.4-1.26.67-.67,1.12-1.13,1.36-1.44.41.44.85.87,1.29,1.26Z"/>
    <path class="st2" d="M131.49,20.6c-.11,0-.16-.05-.16-.16v-1.17c0-.11.05-.16.16-.16.5,0,.9-.12,1.26-.35.34-.23.64-.6.89-1.1l.39-.78c.5-1.06.99-1.82,1.47-2.25s1.01-.66,1.58-.66c.37,0,.76.23,1.13.69s.67,1.06.92,1.79c.23.73.35,1.44.35,2.11,0,.41-.07.76-.21,1.08s-.41.64-.76.94c-.78,0-1.61-.11-2.5-.32s-1.61-.5-2.2-.83c-.3.41-.64.71-.99.89s-.8.27-1.28.27l-.05.02ZM138.03,19.12c-.02-.8-.18-1.58-.46-2.32s-.55-1.1-.83-1.1c-.25,0-.48.07-.69.21s-.43.37-.66.67c-.21.3-.51.81-.87,1.54.92.5,2.07.83,3.51.97v.02Z"/>
    <path class="st2" d="M150.09,19.84c-.71-.07-1.2-.12-1.47-.18s-.55-.14-.83-.27c-.28-.11-.58-.25-.89-.43s-.53-.34-.69-.5-.23-.3-.23-.44c0-.18.09-.46.27-.89s.32-.73.43-.92c.19-.35.62-.78,1.29-1.26.66-.48,1.36-.85,2.11-1.15l-.07-.53c.44-.41.92-.74,1.42-1.01l.18,6.32c.58.34,1.26.51,2.02.51.11,0,.16.05.16.16v1.17c0,.11-.05.16-.16.16-.78,0-1.42-.14-1.91-.44s-.76-.71-.85-1.26l-.07-.41-.71,1.35h.02ZM146.94,17.13c.51.44,1.1.74,1.74.89s1.33.23,2.11.23l-.5-3.14v-.04c-1.56.53-2.68,1.22-3.33,2.06h-.02Z"/>
    <path class="st2" d="M158.94,16.16c.18,0,.34.05.48.16-.23.57-.44,1.05-.62,1.42s-.28.58-.32.64c.44.28.85.48,1.22.58s.78.16,1.24.16c.11,0,.16.05.16.16v1.17c0,.11-.05.16-.16.16-1.2,0-2.23-.37-3.08-1.13l-.32.43c-.12.14-.6.3-1.42.46-.81.16-1.61.25-2.39.25-.11,0-.16-.05-.16-.16v-1.17c0-.11.05-.16.16-.16.81,0,1.49-.04,2.06-.11.57-.07.96-.19,1.19-.35s.57-.67,1.03-1.56l.34-.62c.11-.21.32-.32.6-.32ZM157.2,23.07c-.23.37-.62.81-1.15,1.33-.58-.48-1.01-.87-1.29-1.19.34-.32.76-.76,1.26-1.31.11.12.51.51,1.19,1.17ZM160.14,22.78c-.23.37-.62.81-1.17,1.33-.57-.44-.99-.85-1.29-1.19.28-.27.71-.71,1.26-1.31.11.12.51.51,1.2,1.19v-.02Z"/>
    <path class="st2" d="M161.24,20.6c-.11,0-.16-.05-.16-.16v-1.17c0-.11.05-.16.16-.16.74,0,1.45-.16,2.13-.5-.18-1.36-.37-3.84-.62-7.41l-.19-2.6c.39-.41.83-.76,1.31-1.08.09,1.79.14,4.59.19,8.4l.07,2.68c.58.34,1.26.51,2.02.51.11,0,.18.05.18.16v1.17c0,.11-.05.16-.18.16-.96,0-1.7-.23-2.23-.69-.48.27-.9.44-1.28.55s-.85.14-1.4.14Z"/>
    <path class="st2" d="M166.25,20.6c-.11,0-.16-.05-.16-.16v-1.17c0-.11.05-.16.16-.16.83,0,1.65-.02,2.43-.05-.3-.19-.58-.48-.81-.83-.23-.35-.35-.73-.35-1.13,0-.55.14-1.13.44-1.74s.69-1.1,1.17-1.47c.48-.37.97-.57,1.49-.57.44,0,.89.11,1.29.34.41.23.89.58,1.44,1.05l-.34.62c-.51-.19-.89-.32-1.12-.37-.23-.05-.5-.07-.78-.07-.8,0-1.63.23-2.5.71,0,.55.14,1.06.41,1.52s.66.83,1.17,1.12,1.12.44,1.82.48c.5-.11.97-.23,1.42-.37s1.08-.37,1.9-.69c.18.16.27.39.27.69v.19c-.09.44-.37.71-.83.83-1.54.39-2.71.66-3.51.8-.8.14-1.61.25-2.44.34s-1.68.11-2.57.11h.02Z"/>
    <path class="st2" d="M190.06,21.65l-.5-3.15c-.55-3.3-.92-5.6-1.08-6.89-.18-1.29-.27-2.14-.27-2.57s.11-.78.3-1.01c.19-.25.53-.41.97-.5.02.09.04.16.05.23,0,.07.23.76.64,2.09l-.46.41.04.3.64,5.78c.11.85.19,1.65.27,2.43v.04c.43.23.9.34,1.44.34.11,0,.16.05.16.16v1.17c0,.11-.05.16-.16.16-.48,0-.92-.11-1.33-.32v.64c0,.8-.23,1.58-.73,2.3s-1.19,1.33-2.07,1.79c-.87.46-1.77.69-2.71.69-1.12,0-1.98-.32-2.6-.96s-.94-1.54-.94-2.71c0-.37.02-.73.07-1.06s.14-.81.3-1.45l.71.18c-.14.57-.21,1.03-.21,1.38,0,.96.23,1.7.71,2.21.48.53,1.13.8,1.98.8.62,0,1.26-.11,1.93-.32.66-.21,1.26-.51,1.75-.89.51-.37.87-.78,1.08-1.22l.02-.04Z"/>
    <path class="st2" d="M207.51,20.6c-.55,0-1.1-.11-1.65-.34-.55-.23-.99-.51-1.35-.87-.58.37-1.28.67-2.13.89-.83.21-1.67.32-2.5.32-.94,0-1.9-.11-2.89-.3s-1.77-.46-2.36-.8l-.34.37c-.43.48-1.13.71-2.13.71-.11,0-.16-.05-.16-.16v-1.17c0-.11.05-.16.16-.16.58,0,1.05-.11,1.38-.32s.69-.62,1.03-1.24l.3-.55c.14-.23.34-.34.62-.34.18,0,.34.05.46.18-.27.66-.46,1.12-.58,1.35.32.16.64.28.97.37,2.48-3.3,4.61-4.94,6.36-4.94.37,0,.81.14,1.36.44.53.3,1.03.67,1.45,1.15s.64.89.64,1.24c0,.78-.25,1.49-.74,2.11.58.35,1.28.53,2.07.53.11,0,.18.05.18.16v1.17c0,.11-.05.16-.18.16v.04ZM200.11,19.12c1.7,0,3.44-.55,5.21-1.67-.39-.69-.87-1.22-1.42-1.59-.55-.39-1.1-.58-1.63-.58-.62,0-1.35.3-2.2.9-.85.6-1.77,1.49-2.76,2.66,1.01.19,1.95.28,2.82.28h-.02Z"/>
    <path class="st2" d="M207.6,20.6c-.11,0-.16-.05-.16-.16v-1.17c0-.11.05-.16.16-.16,1.91,0,3.4-.16,4.5-.5l1.08-.37c.74-.28,1.4-.48,1.97-.57-.51-.25-1.01-.58-1.51-.97-.53-.41-.96-.69-1.28-.87-.32-.16-.66-.25-1.01-.25-.62,0-1.19.16-1.68.48l-.46.28c-.19-.19-.28-.44-.28-.76,0-.5.21-.89.66-1.19.43-.3.99-.44,1.7-.44.41,0,.83.09,1.26.27s.9.48,1.47.87c.67.5,1.26.89,1.74,1.13.48.25.96.43,1.45.53.5.11,1.2.16,2.13.16l-.74,1.44c-.41-.05-.76-.09-1.1-.11h-.48c-.44,0-.89.07-1.29.19-.41.14-1.05.43-1.91.87-.97.5-1.84.83-2.64,1.01-.78.18-1.98.25-3.6.25l.04.04Z"/>
    <path class="st2" d="M221.79,14.1v1.22c0,1.26-.05,2.96-.14,5.1l-.89.16c-.09-4.55-.27-8.34-.53-11.34v-.25c0-.41.09-.74.3-.99s.53-.41.97-.5c.02.09.04.16.05.23s.23.76.64,2.09l-.53.44v.09c.07,1.4.11,2.64.11,3.74h.02Z"/>
  </g>
</svg>