<?xml version="1.0" encoding="UTF-8"?>
<svg id="artwork" xmlns="http://www.w3.org/2000/svg" version="1.1" viewBox="0 0 238.96 70.87">
  <!-- Generator: Adobe Illustrator 29.8.3, SVG Export Plug-In . SVG Version: 2.1.1 Build 3)  -->
  <defs>
    <style>
      .st0 {
        fill: #4285f4;
      }

      .st1 {
        isolation: isolate;
      }

      .st2 {
        fill: #a6a6a6;
      }

      .st3 {
        fill: #34a853;
      }

      .st4 {
        fill: #fbbc04;
      }

      .st5 {
        fill: #fff;
      }

      .st6 {
        fill: #ea4335;
      }
    </style>
  </defs>
  <g>
    <rect x="-.11" y="0" width="239.17" height="70.87" rx="8.86" ry="8.86"/>
    <path class="st2" d="M230.21,1.42c4.11,0,7.44,3.33,7.44,7.44v53.15c0,4.11-3.33,7.44-7.44,7.44H8.75c-4.11,0-7.44-3.33-7.44-7.44V8.86c0-4.11,3.33-7.44,7.44-7.44h221.46M230.21,0H8.75C3.88,0-.11,3.99-.11,8.86v53.15c0,4.87,3.99,8.86,8.86,8.86h221.46c4.87,0,8.86-3.99,8.86-8.86V8.86C239.07,3.99,235.08,0,230.21,0h0Z"/>
    <path class="st5" d="M120.61,38.53c-4.16,0-7.56,3.17-7.56,7.53s3.4,7.53,7.56,7.53,7.56-3.19,7.56-7.53-3.4-7.53-7.56-7.53ZM120.61,50.63c-2.29,0-4.25-1.88-4.25-4.57s1.97-4.57,4.25-4.57,4.25,1.86,4.25,4.57-1.97,4.57-4.25,4.57ZM104.1,38.53c-4.16,0-7.56,3.17-7.56,7.53s3.4,7.53,7.56,7.53,7.56-3.19,7.56-7.53-3.4-7.53-7.56-7.53ZM104.1,50.63c-2.29,0-4.25-1.88-4.25-4.57s1.97-4.57,4.25-4.57,4.25,1.86,4.25,4.57-1.97,4.57-4.25,4.57ZM84.47,40.85v3.19h7.65c-.23,1.81-.83,3.12-1.74,4.02-1.12,1.12-2.85,2.34-5.9,2.34-4.71,0-8.4-3.79-8.4-8.5s3.69-8.5,8.4-8.5c2.53,0,4.39.99,5.76,2.29l2.25-2.25c-1.91-1.82-4.45-3.22-8.03-3.22-6.45,0-11.87,5.24-11.87,11.71s5.42,11.71,11.87,11.71c3.49,0,6.11-1.13,8.17-3.28,2.11-2.11,2.76-5.08,2.76-7.48,0-.74-.05-1.44-.18-2h-10.75v-.02ZM164.75,43.33c-.62-1.68-2.53-4.8-6.45-4.8s-7.1,3.05-7.1,7.53c0,4.22,3.19,7.53,7.48,7.53,3.45,0,5.46-2.11,6.27-3.33l-2.57-1.72c-.85,1.26-2.02,2.09-3.7,2.09s-2.89-.78-3.65-2.29l10.08-4.16-.34-.85h-.02ZM154.47,45.85c-.09-2.91,2.25-4.39,3.93-4.39,1.31,0,2.43.66,2.8,1.59l-6.73,2.8ZM146.29,53.15h3.31v-22.15h-3.31v22.15ZM140.86,40.22h-.11c-.74-.89-2.16-1.68-3.97-1.68-3.77,0-7.23,3.31-7.23,7.56s3.45,7.51,7.23,7.51c1.81,0,3.22-.8,3.97-1.72h.11v1.08c0,2.89-1.54,4.43-4.02,4.43-2.02,0-3.28-1.45-3.79-2.68l-2.89,1.2c.83,2,3.03,4.45,6.68,4.45,3.88,0,7.16-2.29,7.16-7.85v-13.54h-3.14s0,1.22,0,1.22ZM137.06,50.63c-2.29,0-4.2-1.91-4.2-4.54s1.91-4.59,4.2-4.59,4.02,1.95,4.02,4.59-1.77,4.54-4.02,4.54ZM180.27,31h-7.92v22.15h3.31v-8.4h4.62c3.67,0,7.26-2.66,7.26-6.87s-3.6-6.87-7.26-6.87h-.02ZM180.34,41.67h-4.69v-7.6h4.69c2.48,0,3.88,2.06,3.88,3.79s-1.4,3.79-3.88,3.79v.02ZM200.78,38.5c-2.39,0-4.87,1.06-5.9,3.38l2.94,1.22c.62-1.22,1.79-1.63,3.01-1.63,1.7,0,3.45,1.03,3.47,2.85v.23c-.6-.34-1.88-.85-3.45-.85-3.17,0-6.38,1.74-6.38,4.98,0,2.96,2.59,4.87,5.49,4.87,2.21,0,3.45-.99,4.22-2.16h.11v1.72h3.19v-8.49c0-3.93-2.94-6.13-6.73-6.13h.04ZM200.37,50.63c-1.08,0-2.59-.55-2.59-1.88,0-1.7,1.88-2.36,3.51-2.36,1.45,0,2.14.32,3.01.74-.25,2.06-2.02,3.51-3.93,3.51v-.02ZM219.12,38.98l-3.79,9.6h-.11l-3.93-9.6h-3.56l5.9,13.43-3.37,7.46h3.45l9.09-20.89h-3.69ZM189.35,53.15h3.31v-22.15h-3.31v22.15Z"/>
    <g>
      <path class="st6" d="M36.6,34.41l-18.87,20.02h0c.58,2.18,2.57,3.77,4.93,3.77.94,0,1.82-.25,2.59-.71l.05-.04,21.22-12.24-9.94-10.82.02.02Z"/>
      <path class="st4" d="M55.68,31h-.02l-9.16-5.33-10.33,9.19,10.36,10.36,9.12-5.26c1.59-.87,2.68-2.55,2.68-4.48s-1.06-3.61-2.66-4.46v-.02Z"/>
      <path class="st0" d="M17.73,16.44c-.11.43-.18.85-.18,1.31v35.38c0,.46.05.89.18,1.31l19.51-19.51s-19.51-18.5-19.51-18.5Z"/>
      <path class="st3" d="M36.74,35.43l9.76-9.76-21.21-12.3c-.76-.46-1.67-.73-2.64-.73-2.36,0-4.34,1.61-4.93,3.77h0l19.01,18.99v.02Z"/>
    </g>
  </g>
  <g class="st1">
    <path class="st5" d="M76.19,22.75c-.87-.51-1.56-1.21-2.06-2.09-.5-.88-.75-1.85-.75-2.91s.25-2.03.75-2.91c.5-.88,1.18-1.57,2.06-2.09.87-.51,1.84-.77,2.91-.77s2.04.26,2.91.77c.87.51,1.55,1.21,2.06,2.09.5.88.76,1.85.76,2.91s-.25,2.03-.75,2.91c-.5.88-1.18,1.58-2.06,2.09-.87.51-1.84.76-2.91.76s-2.04-.25-2.91-.76ZM81.1,21.33c.61-.35,1.08-.83,1.43-1.46.35-.62.52-1.33.52-2.13s-.17-1.51-.52-2.13-.83-1.11-1.43-1.46-1.27-.52-2-.52-1.4.17-2,.52c-.61.35-1.09.84-1.44,1.46s-.53,1.33-.53,2.13.18,1.51.53,2.13c.35.62.83,1.11,1.44,1.46.61.35,1.27.52,2,.52s1.4-.17,2-.52Z"/>
  </g>
  <g class="st1">
    <path class="st5" d="M87.05,12.23h4.15c.59,0,1.13.13,1.63.39.5.26.9.61,1.19,1.06.3.45.45.95.45,1.49s-.14,1.02-.41,1.42c-.27.4-.63.7-1.07.91v.09c.55.19,1,.52,1.35.97s.52.98.52,1.59-.16,1.15-.47,1.62c-.31.47-.73.84-1.26,1.1-.53.26-1.11.39-1.73.39h-4.33v-11.04ZM91.12,16.85c.49,0,.89-.15,1.19-.46.3-.31.45-.66.45-1.06s-.15-.75-.44-1.06c-.29-.3-.68-.46-1.15-.46h-2.4v3.04h2.34ZM91.38,21.66c.52,0,.94-.16,1.26-.49.31-.33.47-.71.47-1.14s-.16-.82-.49-1.15c-.32-.32-.76-.48-1.3-.48h-2.54v3.27h2.6Z"/>
    <path class="st5" d="M98.81,13.88h-3.08v-1.65h7.89v1.65h-3.08v9.39h-1.73v-9.39Z"/>
  </g>
  <g class="st1">
    <path class="st5" d="M105.61,12.23h6.71v1.65h-4.98v3.05h4.49v1.63h-4.49v3.05h4.98v1.65h-6.71v-11.04Z"/>
  </g>
  <g class="st1">
    <path class="st5" d="M114.67,12.23h3.88c.66,0,1.26.15,1.8.43.54.29.97.69,1.29,1.2.31.51.47,1.09.47,1.74,0,.74-.24,1.4-.72,1.97-.48.57-1.08.96-1.8,1.16l-.02.08,3.02,4.36v.09h-2l-2.91-4.31h-1.29v4.31h-1.73v-11.04ZM118.51,17.34c.51,0,.95-.16,1.31-.49s.54-.75.54-1.26c0-.29-.07-.56-.22-.83-.14-.27-.35-.48-.62-.65-.27-.17-.59-.25-.96-.25h-2.17v3.5h2.11Z"/>
  </g>
  <g class="st1">
    <path class="st5" d="M127.65,12.23h2.05l4.93,8.03h.09l-.09-2.13v-5.9h1.71v11.04h-1.8l-5.18-8.45h-.09l.09,2.13v6.32h-1.71v-11.04Z"/>
  </g>
  <g class="st1">
    <path class="st5" d="M141.38,22.75c-.87-.51-1.56-1.21-2.06-2.09-.5-.88-.75-1.85-.75-2.91s.25-2.03.75-2.91c.5-.88,1.19-1.57,2.06-2.09.87-.51,1.84-.77,2.91-.77s2.04.26,2.91.77c.87.51,1.55,1.21,2.06,2.09.5.88.75,1.85.75,2.91s-.25,2.03-.75,2.91c-.5.88-1.18,1.58-2.06,2.09s-1.84.76-2.91.76-2.04-.25-2.91-.76ZM146.3,21.33c.61-.35,1.08-.83,1.43-1.46.35-.62.52-1.33.52-2.13s-.17-1.51-.52-2.13-.83-1.11-1.43-1.46c-.61-.35-1.27-.52-2-.52s-1.4.17-2,.52-1.09.84-1.44,1.46-.53,1.33-.53,2.13.18,1.51.53,2.13c.35.62.84,1.11,1.44,1.46.61.35,1.27.52,2,.52s1.4-.17,2-.52Z"/>
  </g>
</svg>