<?xml version="1.0" encoding="UTF-8"?>
<svg id="Layer_1" xmlns="http://www.w3.org/2000/svg" version="1.1" viewBox="0 0 238.96 70.87">
  <!-- Generator: Adobe Illustrator 29.8.3, SVG Export Plug-In . SVG Version: 2.1.1 Build 3)  -->
  <defs>
    <style>
      .st0 {
        fill: #4285f4;
      }

      .st1 {
        fill: #a6a6a6;
      }

      .st2 {
        stroke: #fff;
        stroke-miterlimit: 10;
        stroke-width: .2px;
      }

      .st2, .st3 {
        fill: #fff;
      }

      .st4 {
        fill: #34a853;
      }

      .st5 {
        fill: #fbbc04;
      }

      .st6 {
        fill: #ea4335;
      }
    </style>
  </defs>
  <g id="artwork">
    <g>
      <rect x="-.11" y="0" width="239.17" height="70.87" rx="8.86" ry="8.86"/>
      <path class="st1" d="M230.21,1.42c4.11,0,7.44,3.33,7.44,7.44v53.15c0,4.11-3.33,7.44-7.44,7.44H8.75c-4.11,0-7.44-3.33-7.44-7.44V8.86C1.31,4.75,4.64,1.42,8.75,1.42h221.46M230.21,0H8.75C3.88,0-.11,3.99-.11,8.86v53.15c0,4.87,3.99,8.86,8.86,8.86h221.46c4.87,0,8.86-3.99,8.86-8.86V8.86C239.07,3.99,235.08,0,230.21,0h0Z"/>
      <path class="st3" d="M114.56,22.66c-3.65,0-6.61,2.76-6.61,6.59s2.98,6.59,6.61,6.59,6.61-2.8,6.61-6.59-2.98-6.59-6.61-6.59ZM114.56,33.24c-2,0-3.72-1.65-3.72-3.99s1.72-3.99,3.72-3.99,3.72,1.63,3.72,3.99-1.72,3.99-3.72,3.99ZM100.13,22.66c-3.65,0-6.61,2.76-6.61,6.59s2.98,6.59,6.61,6.59,6.61-2.8,6.61-6.59-2.98-6.59-6.61-6.59ZM100.13,33.24c-2,0-3.72-1.65-3.72-3.99s1.72-3.99,3.72-3.99,3.72,1.63,3.72,3.99-1.72,3.99-3.72,3.99ZM82.98,24.68v2.8h6.68c-.19,1.58-.73,2.71-1.52,3.53-.97.97-2.5,2.04-5.16,2.04-4.11,0-7.33-3.31-7.33-7.44s3.22-7.44,7.33-7.44c2.21,0,3.84.87,5.03,2l1.97-1.97c-1.67-1.59-3.9-2.82-7.02-2.82-5.63,0-10.38,4.59-10.38,10.22s4.75,10.22,10.38,10.22c3.05,0,5.33-.99,7.14-2.87,1.84-1.84,2.43-4.45,2.43-6.54,0-.66-.05-1.24-.14-1.75h-9.41v.02ZM153.14,26.86c-.55-1.47-2.21-4.2-5.63-4.2s-6.22,2.68-6.22,6.59c0,3.69,2.8,6.59,6.54,6.59,3.01,0,4.77-1.84,5.49-2.92l-2.25-1.49c-.74,1.1-1.77,1.82-3.24,1.82s-2.52-.67-3.19-2l8.81-3.65s-.3-.74-.3-.74ZM144.16,29.06c-.07-2.55,1.97-3.84,3.44-3.84,1.15,0,2.13.57,2.44,1.4l-5.88,2.44ZM137,35.43h2.89v-19.36h-2.89v19.36ZM132.27,24.13h-.11c-.66-.78-1.9-1.47-3.47-1.47-3.3,0-6.31,2.89-6.31,6.61s3.01,6.56,6.31,6.56c1.58,0,2.82-.69,3.47-1.49h.11v.96c0,2.52-1.35,3.86-3.53,3.86-1.77,0-2.87-1.28-3.31-2.34l-2.52,1.05c.73,1.75,2.64,3.9,5.85,3.9,3.4,0,6.25-2,6.25-6.86v-11.83h-2.75v1.08-.02ZM128.94,33.24c-2,0-3.67-1.67-3.67-3.97s1.67-4.02,3.67-4.02,3.53,1.7,3.53,4.02-1.54,3.97-3.53,3.97ZM166.71,16.07h-6.93v19.36h2.89v-7.33h4.04c3.21,0,6.34-2.32,6.34-6.01s-3.15-6.01-6.34-6.01v-.02ZM166.78,25.41h-4.11v-6.64h4.11c2.16,0,3.38,1.79,3.38,3.31s-1.22,3.31-3.38,3.31v.02ZM184.64,22.62c-2.09,0-4.25.92-5.16,2.96l2.57,1.06c.55-1.06,1.58-1.42,2.64-1.42,1.49,0,3.01.9,3.05,2.5v.19c-.53-.3-1.65-.74-3.01-.74-2.76,0-5.58,1.52-5.58,4.36,0,2.59,2.27,4.25,4.8,4.25,1.95,0,3.01-.87,3.69-1.9h.11v1.49h2.78v-7.42c0-3.44-2.57-5.35-5.88-5.35v.02ZM184.29,33.24c-.94,0-2.27-.48-2.27-1.65,0-1.49,1.65-2.07,3.06-2.07,1.28,0,1.86.27,2.64.66-.23,1.79-1.77,3.06-3.44,3.06ZM200.68,23.05l-3.31,8.4h-.11l-3.44-8.4h-3.12l5.16,11.73-2.94,6.52h3.01l7.94-18.25h-3.21.02ZM174.65,35.43h2.89v-19.36h-2.89v19.36Z"/>
      <g>
        <path class="st6" d="M36.6,34.41l-18.87,20.02h0c.58,2.18,2.57,3.77,4.93,3.77.94,0,1.82-.25,2.59-.71l.05-.04,21.22-12.24-9.94-10.82.02.02Z"/>
        <path class="st5" d="M55.68,31h-.02l-9.16-5.33-10.33,9.19,10.36,10.36,9.12-5.26c1.59-.87,2.68-2.55,2.68-4.48s-1.06-3.61-2.66-4.46v-.02Z"/>
        <path class="st0" d="M17.73,16.44c-.11.43-.18.85-.18,1.31v35.38c0,.46.05.89.18,1.31l19.51-19.51s-19.51-18.5-19.51-18.5Z"/>
        <path class="st4" d="M36.74,35.43l9.76-9.76-21.21-12.3c-.76-.46-1.67-.73-2.64-.73-2.36,0-4.34,1.61-4.93,3.77h0l19.01,18.99v.02Z"/>
      </g>
    </g>
  </g>
  <g id="Layer_3">
    <g>
      <path class="st2" d="M73.31,57.37h12.06v.89h-12.06v-.89ZM85,49.22v.89h-11.23v-.89h5.07v-2.71l1.19.09c0,.09-.09.16-.27.18v2.44h5.24ZM76.41,50.83c.69,1.79,1.17,4.07,1.26,5.62-.09,0-.19,0-.92.19-.05-1.51-.53-3.81-1.19-5.6,0,0,.85-.21.85-.21ZM83.43,51.01c-.04.09-.16.18-.34.18-.39,1.75-1.15,4.36-1.77,5.81l-.8-.23c.58-1.52,1.26-4.2,1.61-6.06l1.29.28v.02Z"/>
      <path class="st2" d="M91.15,55.9c-.41-.57-.83-1.13-1.28-1.63l.69-.39c.99,1.08,2.04,2.53,2.48,3.49l-.74.44c-.16-.35-.41-.8-.69-1.24-1.63.51-3.28,1.03-4.36,1.36,0,.11-.09.18-.18.21l-.41-1.05c.28-.07.6-.14.94-.23v-9.6h4.78v6.17h-3.92v3.22l2.68-.73v-.04ZM91.58,48.1h-3.08v1.81h3.08v-1.81ZM88.48,52.56h3.08v-1.84h-3.08v1.84ZM98.47,47.25v8.24c0,1.15-.57,1.17-2.48,1.17-.04-.25-.19-.67-.32-.94.44,0,.85.02,1.15.02.66,0,.73,0,.73-.28v-7.33h-2.99v10.72h-.9v-11.6h4.8l.02.02Z"/>
      <path class="st2" d="M112.13,48.38h-5.63l-.14.04v2.32l.07-.07c1.68.81,3.86,2.06,4.98,2.91l-.62.8c-.96-.78-2.82-1.9-4.41-2.75v7.23h-.94v-10.45h-5.26v-.89h11.98v.89l-.02-.02Z"/>
      <path class="st2" d="M121.57,50.28c.12,1.68.34,3.24.64,4.5.73-1.13,1.31-2.43,1.74-3.76l1.05.3c-.04.09-.14.14-.28.14-.51,1.58-1.24,3.08-2.18,4.41.44,1.29.99,2.09,1.68,2.09.41,0,.57-.67.64-2.34.19.19.5.41.73.46-.16,2.11-.48,2.75-1.42,2.75s-1.7-.81-2.25-2.16c-.67.83-1.47,1.58-2.34,2.16-.14-.21-.41-.5-.66-.67.34-.21.67-.44.97-.71h-2.62v1.38h-.81v-1.38h-2.94v-.73h2.94v-.78h-2.36v-3.3h2.36v-.78h-2.73v-.69h2.73v-.89l1.1.09s-.09.14-.27.18v.64h2.8v.69h-2.8v.78h2.43v3.3h-2.44v.78h2.85v.51c.51-.46,1.01-.99,1.45-1.58-.44-1.47-.71-3.37-.85-5.44h-7.37v-.78h3.1v-1.15h-2.5v-.74h2.5v-1.12l1.13.07c0,.09-.07.16-.27.19v.87h2.48v.74h-2.48v1.15h3.37c-.05-.97-.09-1.98-.09-2.99.89.04,1.05.05,1.17.07,0,.11-.09.18-.27.19,0,.94,0,1.84.05,2.73h3.86v.78h-3.81l-.04.02ZM114.77,53.24v.81h1.72v-.81h-1.72ZM114.77,54.6v.83h1.72v-.83h-1.72ZM118.97,54.05v-.81h-1.77v.81h1.77ZM118.97,55.44v-.83h-1.77v.83h1.77ZM123.08,46.7c.71.53,1.54,1.31,1.91,1.84l-.67.51c-.37-.57-1.19-1.36-1.9-1.91l.64-.44h.02Z"/>
    </g>
  </g>
</svg>